<?xml version="1.0" encoding="UTF-8" standalone="no"?>
<!-- Created with Inkscape (http://www.inkscape.org/) -->

<svg
   xmlns:dc="http://purl.org/dc/elements/1.1/"
   xmlns:cc="http://creativecommons.org/ns#"
   xmlns:rdf="http://www.w3.org/1999/02/22-rdf-syntax-ns#"
   xmlns:svg="http://www.w3.org/2000/svg"
   xmlns="http://www.w3.org/2000/svg"
   xmlns:sodipodi="http://sodipodi.sourceforge.net/DTD/sodipodi-0.dtd"
   xmlns:inkscape="http://www.inkscape.org/namespaces/inkscape"
   width="24"
   height="24"
   id="svg3017"
   version="1.1"
   inkscape:version="0.48.4 r9939"
   sodipodi:docname="Novo documento 4">
  <defs
     id="defs3019" />
  <sodipodi:namedview
     id="base"
     pagecolor="#ffffff"
     bordercolor="#666666"
     borderopacity="1.0"
     inkscape:pageopacity="0.0"
     inkscape:pageshadow="2"
     inkscape:zoom="8.8375"
     inkscape:cx="16.039604"
     inkscape:cy="-8.5714286"
     inkscape:document-units="px"
     inkscape:current-layer="layer1"
     showgrid="false"
     inkscape:window-width="1920"
     inkscape:window-height="1056"
     inkscape:window-x="0"
     inkscape:window-y="24"
     inkscape:window-maximized="1" />
  <metadata
     id="metadata3022">
    <rdf:RDF>
      <cc:Work
         rdf:about="">
        <dc:format>image/svg+xml</dc:format>
        <dc:type
           rdf:resource="http://purl.org/dc/dcmitype/StillImage" />
        <dc:title></dc:title>
      </cc:Work>
    </rdf:RDF>
  </metadata>
  <g
     inkscape:label="Camada 1"
     inkscape:groupmode="layer"
     id="layer1"
     transform="translate(0,-1028.3622)">
    <path
       style="fill:#000000"
       d="m 10.536739,1051.797 c -2.5843866,-0.3548 -4.8327356,-1.4671 -6.6609809,-3.2954 -1.0112543,-1.0111 -1.6049188,-1.8503 -2.2390942,-3.1643 -0.70166988,-1.4541 -1.0266559,-2.7096 -1.10481695,-4.2685 -0.10843505,-2.1629 0.22065404,-3.8577 1.10481695,-5.6898 0.6341754,-1.3141 1.2278399,-2.1531 2.2390942,-3.1643 1.0112522,-1.0113 1.8502501,-1.605 3.1643958,-2.2391 1.0647495,-0.5139 1.9493171,-0.797 3.1609121,-1.0119 0.571308,-0.1015 3.065143,-0.1015 3.636449,0 1.211599,0.2149 2.096165,0.498 3.160913,1.0119 1.314148,0.6341 2.153143,1.2278 3.164398,2.2391 1.01125,1.0112 1.604919,1.8502 2.239091,3.1643 0.414639,0.8593 0.591261,1.3416 0.799769,2.1848 0.256222,1.0362 0.286405,1.3306 0.286405,2.7943 0,1.4637 -0.03019,1.7583 -0.286405,2.7942 -0.208508,0.8433 -0.38513,1.3258 -0.799769,2.185 -0.634172,1.314 -1.227841,2.1532 -2.239091,3.1643 -1.011255,1.0115 -1.85025,1.605 -3.164398,2.2392 -1.047892,0.5057 -1.815498,0.7572 -2.99358,0.981 -0.55314,0.106 -2.882289,0.1557 -3.468109,0.075 z m 3.346977,-2.3419 c 3.709947,-0.8248 6.447012,-3.5699 7.236303,-7.2576 0.115037,-0.5374 0.130004,-0.7557 0.128064,-1.8672 -0.0024,-1.4071 -0.06272,-1.8052 -0.446978,-2.9535 -1.038328,-3.1031 -3.664346,-5.4178 -6.942434,-6.1193 -0.532579,-0.1135 -0.762289,-0.1299 -1.839378,-0.1299 -1.077092,0 -1.306802,0.017 -1.839378,0.1299 -3.695375,0.7908 -6.4704168,3.566 -7.2613513,7.2613 -0.1139892,0.5326 -0.1302561,0.7622 -0.1302561,1.8393 0,1.3873 0.082922,1.9348 0.4564966,3.0142 1.0733956,3.1015 3.7379647,5.4436 6.9071368,6.0714 0.843482,0.1669 0.814439,0.1649 2.063158,0.1462 0.905684,-0.015 1.256607,-0.043 1.668617,-0.1343 z m -3.9565396,-1.9597 c 0.1295116,-0.1751 0.1340326,-0.2145 0.1340326,-1.1697 l 0,-0.9884 -0.6993168,-0.029 c -0.6437483,-0.025 -0.7231636,-0.042 -0.9994214,-0.1942 -0.3608363,-0.1998 -0.5472158,-0.4242 -1.0193979,-1.2274 -0.2611815,-0.4441 -0.434998,-0.6711 -0.6385851,-0.8335 l -0.2797261,-0.2231 0.3076975,0.039 c 0.3859114,0.051 0.6377113,0.198 1.2028267,0.7079 0.5957349,0.5376 0.8052159,0.6282 1.5187193,0.657 l 0.5676468,0.022 0.0405,-0.1879 c 0.05657,-0.2627 0.169338,-0.4671 0.395525,-0.7174 l 0.194329,-0.2153 -0.407288,-0.068 c -1.2286082,-0.2053 -2.3360575,-0.8246 -2.7849711,-1.5574 l -0.1398626,-0.2283 -0.5522747,0 c -0.3037503,0 -0.807258,0.037 -1.1189057,0.085 -0.7778744,0.1179 -0.7755236,0.1179 -0.8010365,0.046 -0.03158,-0.09 0.4591735,-0.1736 1.4791868,-0.2551 0.4692426,-0.037 0.8531666,-0.085 0.8531666,-0.106 0,-0.021 -0.03782,-0.068 -0.084036,-0.1074 -0.063322,-0.053 -0.3736567,-0.065 -1.2587692,-0.046 -0.8670997,0.017 -1.1747346,0 -1.1747346,-0.042 0,-0.085 1.3838204,-0.1577 1.9747418,-0.1045 0.2369994,0.021 0.4306375,0.03 0.4303034,0.018 -2.325e-4,-0.015 -0.039951,-0.1478 -0.088049,-0.3014 -0.1383319,-0.4426 -0.1694265,-1.5467 -0.057703,-2.0489 0.1104491,-0.4964 0.3618992,-1.0502 0.6198929,-1.365 0.1827811,-0.2231 0.1854836,-0.2342 0.1301008,-0.533 -0.065214,-0.3517 -0.024515,-1.381 0.066819,-1.6896 0.056439,-0.1907 0.079912,-0.2098 0.2582095,-0.2098 0.3882099,0 0.988009,0.1831 1.5728159,0.4803 l 0.5957027,0.3026 0.367535,-0.07 c 0.4981,-0.094 2.430841,-0.091 2.951861,0 l 0.402457,0.075 0.324831,-0.1887 c 0.605478,-0.352 1.343589,-0.6007 1.789058,-0.6027 0.15143,0 0.185938,0.026 0.235049,0.1809 0.118185,0.3732 0.184381,0.9238 0.166544,1.3847 -0.0176,0.4546 -0.01075,0.4867 0.155374,0.7273 0.281708,0.4082 0.524425,0.9335 0.640024,1.3855 0.131764,0.5152 0.14709,1.6581 0.02895,2.1602 l -0.07739,0.3291 0.470967,-0.039 c 0.634193,-0.051 1.979303,0.019 1.979303,0.1045 0,0.048 -0.318408,0.058 -1.192175,0.042 -1.107228,-0.021 -1.19965,-0.015 -1.297007,0.082 -0.102398,0.1014 -0.08934,0.1059 0.56279,0.1463 0.630975,0.041 1.697987,0.1867 1.753531,0.2423 0.01403,0.015 0.0021,0.048 -0.02668,0.076 -0.03078,0.03 -0.212901,0.017 -0.443831,-0.03 -0.21539,-0.044 -0.756661,-0.094 -1.202825,-0.1118 l -0.811207,-0.031 -0.167839,0.2914 c -0.424149,0.7362 -1.554205,1.4022 -2.699637,1.5912 l -0.238043,0.039 0.113081,0.159 c 0.319991,0.4494 0.332481,0.5294 0.333803,2.1352 0.0012,1.5464 0.02031,1.6987 0.242724,1.9413 l 0.122154,0.1328 -0.374137,-0.029 c -0.42111,-0.033 -0.714837,-0.1782 -0.819082,-0.4071 -0.04356,-0.095 -0.06555,-0.5442 -0.06555,-1.3372 0,-0.9883 -0.01433,-1.2051 -0.08325,-1.2624 -0.06712,-0.055 -0.08953,-0.053 -0.115604,0.015 -0.01779,0.046 -0.02439,0.6891 -0.01462,1.4283 0.01707,1.2976 0.02212,1.3501 0.145254,1.5165 l 0.127558,0.1724 -0.255227,0 c -0.300896,0 -0.571519,-0.103 -0.727167,-0.2777 -0.103681,-0.1165 -0.113947,-0.2265 -0.139867,-1.5035 -0.02548,-1.2553 -0.03671,-1.38 -0.125871,-1.397 -0.09106,-0.017 -0.0979,0.076 -0.0979,1.3307 0,1.0745 -0.01668,1.3819 -0.08178,1.5077 -0.102829,0.1989 -0.442375,0.3398 -0.818551,0.3398 l -0.282654,0 0.115948,-0.1478 c 0.110545,-0.1403 0.115947,-0.2152 0.115947,-1.6013 0,-1.286 -0.0097,-1.4458 -0.08393,-1.3842 -0.06982,0.058 -0.08393,0.2713 -0.08393,1.2711 0,0.9969 -0.01559,1.2343 -0.09161,1.3945 -0.110993,0.234 -0.418682,0.4042 -0.815485,0.4513 l -0.2840503,0.032 0.1340323,-0.1812 z m -0.397453,-3.033 c 0,-0.087 -0.1707597,-0.1238 -0.241061,-0.053 -0.050304,0.051 -0.047342,0.077 0.012687,0.1149 0.088539,0.054 0.2283864,0.018 0.2283864,-0.061 z m 0.422603,0.058 c 0.057648,-0.092 -0.072014,-0.2003 -0.1491944,-0.1224 -0.064549,0.065 -0.024155,0.1839 0.062252,0.1839 0.027145,0 0.066256,-0.027 0.086933,-0.061 z m -0.9261114,-0.079 c 0,-0.046 -0.049731,-0.084 -0.1118911,-0.084 -0.06216,0 -0.1118903,0.037 -0.1118903,0.084 0,0.046 0.049732,0.084 0.1118903,0.084 0.06216,0 0.1118911,-0.037 0.1118911,-0.084 z m -0.4475637,-0.1119 c 0,-0.046 -0.049731,-0.084 -0.1118911,-0.084 -0.1114548,0 -0.1455195,0.06 -0.074597,0.1298 0.068138,0.068 0.1864846,0.039 0.1864846,-0.046 z m -0.3356707,-0.2518 c 0,-0.07 -0.1606261,-0.1134 -0.1973213,-0.053 -0.050636,0.082 0.022974,0.1644 0.1151934,0.1298 0.045164,-0.018 0.082126,-0.051 0.082126,-0.076 z m -0.3100908,-0.22 c 0.041381,-0.067 -0.063867,-0.1328 -0.1383864,-0.087 -0.062566,0.039 -0.021489,0.1387 0.056855,0.1387 0.027135,0 0.06383,-0.024 0.081526,-0.053 z m -0.249365,-0.2835 c 0,-0.031 -0.023685,-0.056 -0.052638,-0.056 -0.028953,0 -0.068203,0.025 -0.087219,0.056 -0.019007,0.031 0.00471,0.055 0.052647,0.055 0.047969,0 0.087219,-0.026 0.087219,-0.055 z m -0.2237823,-0.2239 c 0,-0.031 -0.02517,-0.055 -0.055941,-0.055 -0.030771,0 -0.055941,0.025 -0.055941,0.055 0,0.031 0.02518,0.056 0.055941,0.056 0.030771,0 0.055941,-0.025 0.055941,-0.056 z m -0.2237814,-0.1677 c 0,-0.031 -0.0111,-0.056 -0.024672,-0.056 -0.013563,0 -0.040228,0.025 -0.059244,0.056 -0.019007,0.031 -0.00793,0.055 0.024672,0.055 0.032588,0 0.059244,-0.025 0.059244,-0.055 z"
       id="path3036"
       inkscape:connector-curvature="0" />
  </g>
</svg>
