<?xml version="1.0" encoding="UTF-8" standalone="no"?>
<!-- Created with Inkscape (http://www.inkscape.org/) -->

<svg
   xmlns:dc="http://purl.org/dc/elements/1.1/"
   xmlns:cc="http://creativecommons.org/ns#"
   xmlns:rdf="http://www.w3.org/1999/02/22-rdf-syntax-ns#"
   xmlns:svg="http://www.w3.org/2000/svg"
   xmlns="http://www.w3.org/2000/svg"
   xmlns:sodipodi="http://sodipodi.sourceforge.net/DTD/sodipodi-0.dtd"
   xmlns:inkscape="http://www.inkscape.org/namespaces/inkscape"
   width="24"
   height="24"
   id="svg2"
   version="1.1"
   inkscape:version="0.48.4 r9939"
   sodipodi:docname="Novo documento 1">
  <defs
     id="defs4" />
  <sodipodi:namedview
     id="base"
     pagecolor="#ffffff"
     bordercolor="#666666"
     borderopacity="1.0"
     inkscape:pageopacity="0.0"
     inkscape:pageshadow="2"
     inkscape:zoom="7.9195959"
     inkscape:cx="30.564881"
     inkscape:cy="18.038092"
     inkscape:document-units="px"
     inkscape:current-layer="layer1"
     showgrid="false"
     inkscape:window-width="1366"
     inkscape:window-height="744"
     inkscape:window-x="0"
     inkscape:window-y="24"
     inkscape:window-maximized="1" />
  <metadata
     id="metadata7">
    <rdf:RDF>
      <cc:Work
         rdf:about="">
        <dc:format>image/svg+xml</dc:format>
        <dc:type
           rdf:resource="http://purl.org/dc/dcmitype/StillImage" />
        <dc:title></dc:title>
      </cc:Work>
    </rdf:RDF>
  </metadata>
  <g
     inkscape:label="Camada 1"
     inkscape:groupmode="layer"
     id="layer1"
     transform="translate(0,-1028.3622)">
    <path
       style="fill:#000000"
       d="m 3.7939103,1052.0471 c -0.239877,-0.2555 -0.2486604,-0.3544 -0.2486604,-2.802 l 0,-2.5372 -0.4115747,0 c -0.5953418,0 -1.1430308,-0.3 -1.3522032,-0.7408 -0.2516477,-0.5303 -0.2696205,-7.4013 -0.020915,-7.9967 0.2084371,-0.4987 0.5646537,-0.7364 1.2373407,-0.8258 l 0.5473567,-0.072 0,-3.8811 c 0,-2.3129 0.045234,-3.9657 0.1119504,-4.0904 0.061565,-0.115 0.2751022,-0.266 0.4745144,-0.3355 0.4150606,-0.1447 11.5030325,-0.1802 11.7272875,-0.038 0.07378,0.047 1.192344,1.2943 2.485694,2.7717 l 2.35154,2.6862 0.0016,1.4451 0.0016,1.4451 0.533716,0.08 c 0.637088,0.096 0.985267,0.3038 1.164095,0.6962 0.09141,0.2006 0.131988,1.4758 0.131988,4.1473 0,3.3811 -0.02301,3.8903 -0.186491,4.1236 -0.221257,0.3159 -0.815127,0.5852 -1.290473,0.5852 l -0.340682,0 -0.03466,2.5835 c -0.03433,2.5578 -0.03736,2.5857 -0.304658,2.8019 -0.260011,0.2104 -0.566614,0.2184 -8.299931,0.2184 l -8.0299452,0 -0.2486626,-0.2646 z m 15.9908047,-3.1091 0,-2.2301 -7.662282,0 -7.6622818,0 0,2.2301 0,2.2301 7.6622818,0 7.662282,0 0,-2.2301 z m -7.490739,-4.1471 c 0.540178,-0.2784 1.095008,-0.8416 1.378857,-1.3994 0.252963,-0.4972 0.351218,-1.9433 0.17607,-2.5912 -0.325488,-1.2043 -1.314034,-2.0486 -2.546368,-2.1748 -1.298724,-0.133 -2.3977582,0.4737 -2.9723669,1.6408 -0.3167922,0.6435 -0.3667238,0.8649 -0.3655177,1.6208 0.00261,1.5927 0.7271128,2.6699 2.0985176,3.1198 0.489725,0.1607 1.733945,0.041 2.230808,-0.216 z m -2.033528,-1.0242 c -0.489299,-0.3134 -0.7683503,-1.0041 -0.7683503,-1.9016 0,-0.4225 0.070564,-0.9339 0.1568031,-1.1363 0.3674142,-0.8622 1.2785712,-1.2206 1.9819392,-0.7793 0.57301,0.3595 0.767913,0.8412 0.767913,1.898 0,0.9592 -0.147371,1.4026 -0.603058,1.815 -0.33648,0.3046 -1.137662,0.359 -1.535247,0.1042 z m 9.324134,1.0963 0.543221,-0.1219 0,-1.7042 0,-1.7041 -1.143624,0 -1.143625,0 0,0.5719 0,0.5719 0.45745,0 0.457448,0 0,0.6785 c 0,0.655 -0.01095,0.6799 -0.314495,0.7157 -1.254939,0.1485 -2.174205,-0.5807 -2.276216,-1.8055 -0.07681,-0.9223 0.261101,-1.5947 0.989639,-1.9688 0.430468,-0.2213 0.645549,-0.257 1.315166,-0.2184 0.440297,0.024 0.887755,0.084 0.994353,0.1312 0.15771,0.069 0.224466,-0.017 0.358375,-0.4678 l 0.164564,-0.553 -0.348449,-0.1509 c -0.431875,-0.187 -2.034348,-0.2066 -2.673548,-0.033 -1.282362,0.349 -2.189447,1.4605 -2.298257,2.8159 -0.20873,2.6005 1.81988,3.9377 4.917998,3.242 z m -11.8079221,-0.4423 0,-0.5717 -1.2579841,0 -1.2579882,0 0,-2.5733 0,-2.573 -0.7433556,0 -0.7433547,0 0,3.1448 0,3.1451 2.0013429,0 2.0013397,0 0,-0.5719 z m 12.0080551,-8.4629 0,-1.1436 -2.150014,0 c -1.51975,0 -2.190242,-0.041 -2.287248,-0.1373 -0.09834,-0.098 -0.137234,-0.8436 -0.137234,-2.6302 l 0,-2.493 -5.375035,0 -5.3750328,0 0,3.774 0,3.7738 7.6622818,0 7.662282,0 0,-1.1437 z"
       id="path2996"
       inkscape:connector-curvature="0" />
  </g>
</svg>
