<?xml version="1.0" encoding="UTF-8" standalone="no"?>
<!-- Created with Inkscape (http://www.inkscape.org/) -->

<svg
   xmlns:dc="http://purl.org/dc/elements/1.1/"
   xmlns:cc="http://creativecommons.org/ns#"
   xmlns:rdf="http://www.w3.org/1999/02/22-rdf-syntax-ns#"
   xmlns:svg="http://www.w3.org/2000/svg"
   xmlns="http://www.w3.org/2000/svg"
   xmlns:sodipodi="http://sodipodi.sourceforge.net/DTD/sodipodi-0.dtd"
   xmlns:inkscape="http://www.inkscape.org/namespaces/inkscape"
   width="24"
   height="24"
   id="svg2"
   version="1.1"
   inkscape:version="0.48.4 r9939"
   sodipodi:docname="Novo documento 1">
  <defs
     id="defs4" />
  <sodipodi:namedview
     id="base"
     pagecolor="#ffffff"
     bordercolor="#666666"
     borderopacity="1.0"
     inkscape:pageopacity="0.0"
     inkscape:pageshadow="2"
     inkscape:zoom="3.9277778"
     inkscape:cx="10.325318"
     inkscape:cy="4.2857143"
     inkscape:document-units="px"
     inkscape:current-layer="layer1"
     showgrid="false"
     inkscape:window-width="1920"
     inkscape:window-height="1056"
     inkscape:window-x="0"
     inkscape:window-y="24"
     inkscape:window-maximized="1" />
  <metadata
     id="metadata7">
    <rdf:RDF>
      <cc:Work
         rdf:about="">
        <dc:format>image/svg+xml</dc:format>
        <dc:type
           rdf:resource="http://purl.org/dc/dcmitype/StillImage" />
        <dc:title></dc:title>
      </cc:Work>
    </rdf:RDF>
  </metadata>
  <g
     inkscape:label="Camada 1"
     inkscape:groupmode="layer"
     id="layer1"
     transform="translate(0,-1028.3622)">
    <path
       style="fill:#000000"
       d="m 12.890737,1047.781 c -0.01459,-0.012 -2.593391,-0.069 -3.1147127,-0.069 -0.300273,0 -0.84792,0.011 -1.2169921,0.017 -0.6301994,0.015 -0.671986,0.011 -0.6865719,-0.063 -0.019869,-0.1017 0.059416,-0.1503 0.2447125,-0.1523 0.1986168,0 0.4814536,-0.1363 0.5690583,-0.2701 0.1376262,-0.21 0.1877732,-0.6129 0.2277362,-1.8294 0.04715,-1.435 0.05037,-6.0839 0.0051,-7.3494 -0.02849,-0.797 -0.04267,-0.9232 -0.120705,-1.075 -0.1354474,-0.2636 -0.3480359,-0.3694 -0.8225093,-0.4091 -0.2605324,-0.022 -0.3464527,-0.068 -0.3088827,-0.1659 0.033563,-0.087 0.2429864,-0.1038 0.7861615,-0.063 0.2656261,0.02 1.3806265,0.046 2.4777782,0.058 1.706287,0.018 2.052528,0.011 2.393785,-0.046 0.63779,-0.1073 0.609791,-0.1118 0.603832,0.083 -0.0028,0.093 -0.03326,0.3476 -0.06767,0.567 -0.0344,0.2194 -0.0618,0.4368 -0.0609,0.4829 0.0076,0.3817 -0.02233,0.5973 -0.09598,0.693 -0.11381,0.1479 -0.165844,0.077 -0.216655,-0.2987 -0.04714,-0.3479 -0.173903,-0.5855 -0.36507,-0.6843 -0.230979,-0.1194 -0.815516,-0.1863 -1.818299,-0.2079 -0.708744,-0.016 -1.005398,-0.011 -1.039406,0.026 -0.05756,0.058 -0.0674,4.2182 -0.01016,4.3085 0.02968,0.047 0.267337,0.053 1.332739,0.034 0.713143,-0.014 1.367129,-0.036 1.453309,-0.051 0.09491,-0.017 0.229909,-0.091 0.342414,-0.1909 0.102146,-0.09 0.21817,-0.1635 0.257823,-0.1635 0.07828,0 0.07767,0.027 -0.01924,0.8399 -0.02339,0.1964 -0.05544,0.5903 -0.0712,0.8753 -0.02122,0.3837 -0.04384,0.5241 -0.08712,0.5407 -0.09371,0.036 -0.17762,-0.1191 -0.179065,-0.331 -0.0018,-0.2613 -0.130159,-0.5477 -0.30223,-0.6744 -0.2061,-0.1517 -0.490739,-0.1931 -1.609934,-0.2339 -0.868088,-0.032 -1.018107,-0.028 -1.081404,0.026 -0.06801,0.058 -0.07349,0.2058 -0.07349,1.9847 0,1.9047 0.03029,2.4594 0.14645,2.6826 0.181977,0.3496 0.575824,0.4637 1.600919,0.4637 1.33509,0 1.761574,-0.1723 1.992663,-0.8045 0.0449,-0.1228 0.08163,-0.267 0.08163,-0.3205 0,-0.053 0.02945,-0.1541 0.06546,-0.2237 0.214199,-0.4142 0.244566,0.3459 0.05557,1.3907 -0.0961,0.5312 -0.171702,0.5866 -0.818129,0.5998 -0.244097,0 -0.446955,0.011 -0.450801,0 z m -0.167542,-3.1573 c -0.03873,-0.011 -0.07042,-0.048 -0.07042,-0.093 0,-0.085 0.211089,-0.1662 0.428886,-0.1666 0.06266,-10e-5 0.223286,-0.041 0.356967,-0.09 0.396441,-0.1479 0.695156,-0.4887 1.374342,-1.5682 0.746675,-1.1868 1.2712,-2.019 1.389639,-2.2049 0.05152,-0.081 0.259495,-0.4116 0.46216,-0.7349 0.202665,-0.3233 0.424393,-0.6766 0.492725,-0.7848 l 0.124237,-0.197 -0.0827,-0.118 c -0.04547,-0.065 -0.09011,-0.1374 -0.09918,-0.1609 -0.009,-0.024 -0.235384,-0.4109 -0.50292,-0.8609 -0.267538,-0.45 -0.825038,-1.3944 -1.23889,-2.0987 -1.028501,-1.7504 -1.267724,-1.9911 -2.068901,-2.0818 -0.276065,-0.032 -0.386385,-0.1038 -0.30569,-0.2009 0.03819,-0.046 0.383536,-0.056 1.842478,-0.052 l 1.795477,0 0.01323,0.093 c 0.01429,0.1005 -0.02005,0.1148 -0.369764,0.1538 -0.371805,0.042 -0.413982,0.2962 -0.136193,0.8231 0.450182,0.8539 0.60441,1.1385 0.967694,1.7859 0.812963,1.4485 0.979327,1.7137 1.036249,1.6523 0.152547,-0.1646 1.918867,-3.0262 2.14114,-3.4687 0.262216,-0.522 0.164236,-0.758 -0.331357,-0.7977 -0.292593,-0.024 -0.407462,-0.093 -0.323444,-0.1935 0.06995,-0.085 3.025974,-0.084 3.058323,0 0.03722,0.097 -0.07356,0.1822 -0.236914,0.1822 -0.08537,0 -0.256963,0.03 -0.381317,0.068 -0.379562,0.1129 -0.652676,0.4355 -1.66726,1.9697 -0.488765,0.7391 -1.088527,1.6463 -1.332801,2.0158 -0.244275,0.3697 -0.471058,0.7209 -0.503964,0.7806 -0.06575,0.1193 -0.141149,-0.027 0.794704,1.5502 0.157533,0.2657 0.31865,0.5397 0.358034,0.609 0.03939,0.069 0.313423,0.5323 0.608975,1.0289 1.34417,2.2586 1.453545,2.4164 1.848175,2.6678 0.11549,0.073 0.313924,0.157 0.440961,0.1855 0.50267,0.1129 0.551616,0.131 0.537834,0.2025 -0.0073,0.038 -0.06047,0.081 -0.118094,0.097 -0.114926,0.03 -2.539996,0 -2.76324,-0.028 -0.184472,-0.028 -0.208233,-0.1135 -0.07554,-0.2711 0.06008,-0.071 0.109247,-0.158 0.109247,-0.1926 0,-0.035 -0.116567,-0.274 -0.25904,-0.5321 -0.142477,-0.2583 -0.305771,-0.5547 -0.362881,-0.6586 -0.207923,-0.3784 -1.41194,-2.4697 -1.699534,-2.9521 -0.16245,-0.2724 -0.309824,-0.4803 -0.327503,-0.462 -0.01768,0.018 -0.130559,0.2036 -0.250844,0.4114 -0.120285,0.2078 -0.257034,0.4441 -0.303884,0.5249 -0.04685,0.081 -0.10612,0.1849 -0.131718,0.231 -0.02559,0.046 -0.208869,0.358 -0.407279,0.693 -0.198417,0.3349 -0.408075,0.6939 -0.465907,0.7979 -0.164768,0.2961 -0.261632,0.4619 -0.44193,0.7561 -0.288166,0.4702 -0.428745,0.7846 -0.456538,1.0211 -0.03308,0.2814 0.04478,0.381 0.331439,0.424 0.204967,0.03 0.325273,0.1241 0.253028,0.1963 -0.03854,0.038 -2.867542,0.081 -3.050298,0.045 z m -8.5821182,-0.083 c -0.050294,-0.011 -0.1119457,-0.037 -0.1370037,-0.068 -0.067183,-0.081 0.051649,-0.1625 0.2631109,-0.1805 0.5579236,-0.047 0.6641749,-0.2238 0.7405658,-1.2276 0.03143,-0.413 0.061606,-6.7049 0.044085,-9.1909 -4.256e-4,-0.045 -0.2468745,-0.05 -1.3127683,-0.029 -0.7218107,0.015 -1.4415137,0.044 -1.5993351,0.067 -0.4913567,0.069 -0.7318312,0.2504 -0.9656325,0.7278 -0.1183412,0.2417 -0.21060277,0.3408 -0.27843967,0.2988 -0.066404,-0.041 -0.053015,-0.2613 0.042426,-0.6982 0.28911377,-1.3233 0.28085777,-1.2978 0.41897467,-1.2978 0.059913,0 0.1833478,0.036 0.2743077,0.08 0.3008017,0.1448 1.0132468,0.1723 4.4478938,0.1723 3.1469001,0 3.2754131,0 3.6992391,-0.088 0.2414955,-0.049 0.4696915,-0.077 0.5071005,-0.062 0.0611,0.024 0.06507,0.1211 0.03897,0.9598 -0.01599,0.5136 -0.03854,0.9667 -0.05015,1.0071 -0.02414,0.084 -0.17767,0.1005 -0.202695,0.022 -0.0091,-0.028 -0.0287,-0.1602 -0.04344,-0.2919 -0.0323,-0.2884 -0.1517505,-0.4805 -0.3794955,-0.6101 -0.371092,-0.2113 -0.746891,-0.2588 -2.1615638,-0.2731 l -1.1129006,-0.011 0.00316,4.6196 c 0.00327,4.862 0.013096,5.1419 0.1918646,5.4923 0.1058833,0.2076 0.274231,0.2792 0.7687498,0.327 0.2090606,0.02 0.3942814,0.037 0.411605,0.038 0.055612,0 0.033575,0.1711 -0.025243,0.1936 -0.060793,0.024 -3.4302747,0.047 -3.5833805,0.026 z"
       id="path2996"
       inkscape:connector-curvature="0" />
  </g>
</svg>
